<svg width="48" height="48" viewBox="0 0 48 48" fill="none" xmlns="http://www.w3.org/2000/svg">
  <g filter="url(#filter0_d)">
    <!-- Tree canopy -->
    <path d="M24 8C19.5 8 16 11.5 16 16C14 16.5 12 18 12 21C12 24 14.5 26 17 26C17 29 18.5 31.5 21 33C21 33 21.5 36 24 36C26.5 36 27 33 27 33C29.5 31.5 31 29 31 26C33.5 26 36 24 36 21C36 18 34 16.5 32 16C32 11.5 28.5 8 24 8Z" fill="#6B8E6F"/>
    
    <!-- Tree trunk -->
    <path d="M22 33C22 33 22 36 22 38C22 39.5 22.5 40 24 40C25.5 40 26 39.5 26 38C26 36 26 33 26 33" fill="#5A7A5E"/>
    
    <!-- Highlights -->
    <ellipse cx="20" cy="18" rx="3" ry="4" fill="#7FA083" opacity="0.4"/>
    <ellipse cx="28" cy="22" rx="2.5" ry="3" fill="#7FA083" opacity="0.3"/>
  </g>
  
  <defs>
    <filter id="filter0_d" x="10" y="7" width="28" height="36" filterUnits="userSpaceOnUse" color-interpolation-filters="sRGB">
      <feFlood flood-opacity="0" result="BackgroundImageFix"/>
      <feColorMatrix in="SourceAlpha" type="matrix" values="0 0 0 0 0 0 0 0 0 0 0 0 0 0 0 0 0 0 127 0" result="hardAlpha"/>
      <feOffset dy="1"/>
      <feGaussianBlur stdDeviation="1"/>
      <feComposite in2="hardAlpha" operator="out"/>
      <feColorMatrix type="matrix" values="0 0 0 0 0.419608 0 0 0 0 0.556863 0 0 0 0 0.435294 0 0 0 0.2 0"/>
      <feBlend mode="normal" in2="BackgroundImageFix" result="effect1_dropShadow"/>
      <feBlend mode="normal" in="SourceGraphic" in2="effect1_dropShadow" result="shape"/>
    </filter>
  </defs>
</svg>
